<?xml version="1.0" encoding="UTF-8"?><svg id="Layer_1" xmlns="http://www.w3.org/2000/svg" viewBox="0 0 1024 1024"><defs><style>.cls-1{fill:#f5e6d3;}.cls-2{fill:#231f20;}.cls-3{fill:#3f2920;}</style></defs><path class="cls-3" d="M670.56,300.74c.98.24,1.56.51,1.71,1.56.09,4.17.01,18.27.04,36.58,0,44.56,0,113.92,0,125.74.5,27.14-14.88,52.97-36.64,58.08-3.55.89-7.31,1.5-10.59,1.47-3.48,0-15.06,0-31.29,0-69.47-1.01-180.64,2.16-204.8-1.47-18.69-4.66-33.34-24.12-35.97-47.85-1.56-23.27-.31-146.39-.62-172.56-.16-3.27,11.33-1.29,13.27-1.1,34.05,7.72,84.83,12.64,144.78,12.83,18.64.06,38.15-.37,56.42-1.32,39.02-1.98,70.72-6.01,95.16-11.49,2.99-.5,6.56-.87,8.43-.52l.11.02Z"/><path class="cls-2" d="M449.23,525.67c-28.25,0-50.95-.38-60.43-1.81-19.14-4.77-34.29-24.85-36.96-48.87-1.05-15.61-.84-74.33-.67-121.51.08-22.78.15-42.45.04-51.16-.03-.68.23-1.33.78-1.82,1.89-1.74,7.23-1.31,12.72-.58.47.06.83.11,1.06.13l.14.02c35.61,8.07,86.94,12.62,144.53,12.81,19.08.06,38.58-.39,56.35-1.31,37.61-1.91,69.56-5.77,94.96-11.46,1.91-.32,6.47-.99,8.91-.53l.16.03c.81.19,2.31.55,2.59,2.53v.14c.06,2.5.06,8.53.05,16.86,0,5.64-.01,12.35,0,19.74v125.74c.53,28.6-15.61,54.07-37.53,59.22-2.78.7-6.91,1.54-10.86,1.5h-31.28c-26.8-.39-59.74-.16-91.59.07-18.52.13-36.66.26-52.96.26ZM356.93,301.6c-2.7,0-3.27.44-3.39.64.11,8.78.04,28.46-.04,51.25-.16,44.66-.37,105.82.66,121.29,2.56,23.02,16.99,42.29,35.1,46.8,14.65,2.2,62.38,1.86,112.91,1.5,31.87-.23,64.82-.46,91.62-.07h31.28c2.94.05,6.48-.48,10.31-1.44,20.56-4.83,36.26-29.84,35.76-56.93v-125.76c-.01-7.39,0-14.1,0-19.74,0-8.25.01-14.22-.04-16.74-.05-.3-.1-.35-.8-.52l-.09-.02c-1.42-.27-4.42-.08-8.01.53-25.47,5.71-57.56,9.59-95.29,11.5-17.82.92-37.35,1.38-56.48,1.32-57.72-.19-109.2-4.75-144.97-12.85-.25-.03-.61-.07-1.06-.13-3.49-.46-5.87-.62-7.48-.62Z"/><path class="cls-1" d="M671.91,300.31c-11.36,23.84-154.71,25.43-196.38,23.49-40.83-1.59-71.83-4.65-97.53-10.38-4.38-1.03-10.31-2.69-14.83-4.47-41.85-17.69,40.11-29.8,96.7-32.37,33.48-1.72,65.94-1.78,99.41-.22,26.55,1.48,111.01,6.51,112.66,23.85l-.02.08Z"/><path class="cls-2" d="M507.44,325.56c-13.3,0-24.48-.24-31.98-.59-42.79-1.67-72.93-4.88-97.73-10.4-2.05-.48-9.15-2.22-15-4.52-8.88-3.75-12.84-7.5-12.13-11.45,2.7-15.06,79.74-21.82,109.2-23.16,33.37-1.72,65.92-1.79,99.52-.22,75.36,4.21,112.57,12.36,113.76,24.9l.02.18-.14.51c-9.61,20.17-107.64,24.75-165.51,24.75ZM511.66,276.42c-17.2,0-34.36.45-51.75,1.34-50.05,2.27-105.19,11.04-107.02,21.25-.47,2.61,3.34,5.77,10.72,8.89,5.68,2.23,12.65,3.94,14.65,4.41,24.65,5.49,54.66,8.68,97.31,10.35,51.16,2.38,183.81-.87,195.16-22.58-1.02-6.27-17.25-17.26-111.53-22.52-16.01-.75-31.8-1.12-47.54-1.12Z"/><path d="M321.05,664.28v-1.83l3.84-1.46c2.44-.85,4.02-2.01,4.75-3.47.73-1.46,1.1-3.35,1.1-5.67v-95.61c0-2.44-.37-4.39-1.1-5.85-.73-1.46-2.32-2.62-4.75-3.47l-3.84-1.46v-1.83h45.52v1.83l-4.02,1.65c-2.07.73-3.47,1.83-4.2,3.29-.73,1.46-1.1,3.47-1.1,6.03v95.61c0,2.44.39,4.33,1.19,5.67.79,1.34,2.35,2.44,4.66,3.29l3.47,1.46v1.83h-45.52ZM388.51,664.28v-1.83l2.38-.73c2.44-.73,3.72-1.95,3.84-3.66.12-1.71-.61-3.66-2.19-5.85l-35.1-49.91,46.25-47.17c1.71-1.71,2.65-3.35,2.83-4.94.18-1.58-1.01-2.8-3.56-3.66l-3.11-1.1v-1.83h26.69v1.83l-4.75,1.46c-2.68.85-4.82,1.89-6.4,3.11-1.59,1.22-3.41,2.87-5.48,4.94l-32.72,33.46,42.96,62.71c1.83,2.68,3.56,4.88,5.21,6.58,1.65,1.71,3.99,3.05,7.04,4.02l2.56.73v1.83h-46.43Z"/><path d="M492.35,667.57c-7.44,0-14.6-1.34-21.48-4.02-6.89-2.68-13.04-6.67-18.46-11.97-5.42-5.3-9.72-11.91-12.89-19.84-3.17-7.92-4.75-17.18-4.75-27.79s1.58-19.68,4.75-27.6c3.17-7.92,7.5-14.53,12.98-19.83,5.48-5.3,11.67-9.32,18.56-12.07,6.88-2.74,13.99-4.11,21.3-4.11s14.59,1.31,21.48,3.93c6.88,2.62,13.04,6.58,18.46,11.88,5.42,5.3,9.72,11.95,12.89,19.93,3.17,7.98,4.75,17.28,4.75,27.88s-1.59,19.53-4.75,27.51c-3.17,7.98-7.47,14.62-12.89,19.93-5.42,5.3-11.58,9.32-18.46,12.07-6.89,2.74-14.05,4.11-21.48,4.11ZM492.35,663.73c6.7,0,12.13-1.8,16.27-5.39,4.14-3.59,7.16-9.75,9.05-18.46,1.89-8.71,2.83-20.69,2.83-35.92s-.95-27.39-2.83-36.11c-1.89-8.71-4.91-14.87-9.05-18.46-4.14-3.59-9.57-5.39-16.27-5.39s-11.95,1.8-16.09,5.39c-4.15,3.6-7.16,9.75-9.05,18.46-1.89,8.71-2.83,20.75-2.83,36.11s.94,27.21,2.83,35.92c1.89,8.71,4.9,14.87,9.05,18.46,4.14,3.6,9.51,5.39,16.09,5.39Z"/><path d="M554.5,664.28v-1.83l3.66-1.28c2.44-.73,4.05-1.83,4.84-3.29.79-1.46,1.19-3.41,1.19-5.85v-95.79c0-2.44-.43-4.39-1.28-5.85-.85-1.46-2.5-2.62-4.94-3.47l-3.47-1.46v-1.83h44.42c18.16,0,31.29,3.32,39.4,9.96,8.1,6.64,12.16,15.39,12.16,26.23,0,6.95-1.68,13.32-5.03,19.1-3.35,5.79-8.87,10.39-16.54,13.8-7.68,3.41-18.04,5.12-31.08,5.12h-6.22v33.64c0,4.75,2.38,7.86,7.13,9.32l5.48,1.65v1.83h-49.73ZM591.62,614.19h6.95c5.97,0,10.85-.97,14.62-2.92,3.78-1.95,6.58-5.36,8.41-10.24,1.83-4.87,2.74-11.64,2.74-20.29s-1.01-15.6-3.02-20.48c-2.01-4.87-4.97-8.25-8.87-10.15-3.9-1.89-8.78-2.83-14.62-2.83h-6.22v66.91Z"/><path d="M655.96,664.28v-1.83l3.66-1.46c2.44-.85,4.05-2.01,4.84-3.47.79-1.46,1.19-3.41,1.19-5.85v-95.43c0-2.44-.37-4.39-1.1-5.85-.73-1.46-2.38-2.62-4.94-3.47l-3.66-1.46v-1.83h46.98v1.83l-3.66,1.46c-2.44.85-4.05,2.01-4.84,3.47-.79,1.46-1.19,3.41-1.19,5.85v95.43c0,2.44.39,4.36,1.19,5.76.79,1.4,2.41,2.59,4.84,3.56l3.66,1.46v1.83h-46.98Z"/><path d="M328.55,823.36v-1.83l3.66-1.28c2.44-.73,4.05-1.83,4.84-3.29.79-1.46,1.19-3.41,1.19-5.85v-95.79c0-2.44-.43-4.39-1.28-5.85-.85-1.46-2.5-2.62-4.94-3.47l-3.47-1.46v-1.83h44.42c18.16,0,31.29,3.32,39.4,9.96,8.1,6.64,12.16,15.39,12.16,26.23,0,6.95-1.68,13.32-5.03,19.1-3.35,5.79-8.87,10.39-16.54,13.8-7.68,3.41-18.04,5.12-31.08,5.12h-6.22v33.64c0,4.75,2.38,7.86,7.13,9.32l5.48,1.65v1.83h-49.72ZM365.66,773.27h6.95c5.97,0,10.85-.97,14.62-2.92,3.78-1.95,6.58-5.36,8.41-10.24,1.83-4.87,2.74-11.64,2.74-20.29s-1.01-15.6-3.02-20.48c-2.01-4.87-4.97-8.25-8.87-10.15-3.9-1.89-8.77-2.83-14.62-2.83h-6.22v66.91Z"/><path d="M414.29,823.36v-1.83l4.57-1.65c2.44-.97,4.32-2.16,5.67-3.56,1.34-1.4,2.44-3.38,3.29-5.94l37.66-108.04h15.54l37.11,108.77c.97,2.68,2.07,4.72,3.29,6.12,1.22,1.4,3.11,2.59,5.67,3.56l2.19.73v1.83h-46.43v-1.83l2.74-.91c2.56-.97,4.11-2.34,4.66-4.11.55-1.77.46-3.87-.27-6.31l-8.59-26.33h-40.58l-8.77,25.78c-.85,2.68-1.13,4.82-.82,6.4.3,1.58,1.74,2.87,4.3,3.84l4.02,1.65v1.83h-25.23ZM442.07,780.21h38.21l-18.46-56.85-19.74,56.85Z"/><path d="M592.9,826.65c-12.43,0-23.37-2.59-32.82-7.77-9.45-5.18-16.82-12.55-22.12-22.12-5.3-9.57-7.95-20.87-7.95-33.91s2.62-23.77,7.86-33.27c5.24-9.51,12.83-16.91,22.76-22.21,9.93-5.3,21.97-7.95,36.11-7.95,6.46,0,12.46.73,18.01,2.19,5.54,1.46,10.81,3.6,15.81,6.4l.73,25.59h-1.83l-10.24-19.01c-1.58-3.04-3.05-5.24-4.39-6.58-1.34-1.34-3.05-2.38-5.12-3.11-1.95-.61-3.75-1.07-5.39-1.37-1.65-.3-3.81-.46-6.49-.46-7.56,0-14.23,2.01-20.02,6.03-5.79,4.02-10.27,10.42-13.44,19.2-3.17,8.78-4.75,20.29-4.75,34.55s1.49,25.66,4.48,34.55c2.98,8.9,7.22,15.39,12.71,19.47,5.48,4.08,11.82,6.12,19.01,6.12,1.1,0,2.16-.09,3.2-.27,1.03-.18,2.04-.39,3.02-.64,2.31-.37,3.84-1.34,4.57-2.93.73-1.58,1.1-3.47,1.1-5.67v-36.2c0-4.75-2.44-7.68-7.31-8.78l-8.41-2.19v-1.83h51.55v1.83l-2.56.73c-4.63,1.46-6.95,4.51-6.95,9.14v39.67c-6.34,3.54-12.77,6.22-19.29,8.04-6.52,1.83-13.8,2.74-21.85,2.74Z"/><path d="M648.47,823.36v-1.83l3.66-1.46c2.44-.85,4.05-2.01,4.84-3.47.79-1.46,1.19-3.41,1.19-5.85v-95.43c0-2.44-.37-4.39-1.1-5.85-.73-1.46-2.38-2.62-4.94-3.47l-3.66-1.46v-1.83h46.98v1.83l-3.66,1.46c-2.44.85-4.05,2.01-4.84,3.47-.79,1.46-1.19,3.41-1.19,5.85v95.43c0,2.44.39,4.36,1.19,5.76.79,1.4,2.41,2.59,4.84,3.56l3.66,1.46v1.83h-46.98Z"/><path class="cls-2" d="M532.25,294.75c13.13-8.64,48-30.18,51.45-44.99,1.18-9.06-8.58-16.92-15.15-21.95-8.92-6.52-18.76-11.67-28.38-17.2-12.29-7.34-37.38-20.57-27.25-38.11,12.24-18.9,51-33.94,72.16-41.06,0,0,.12.33.12.33-15.57,7.21-71.72,31.18-71.19,49.45.41,13.66,30.28,29.29,41.22,36.6,10.11,6.75,32.59,18.3,31.12,32.34-1.67,10.94-16.58,21.9-25.17,28.06-9.15,6.37-18.79,11.97-28.78,16.82,0,0-.17-.31-.17-.31h0Z"/><path class="cls-2" d="M448.31,294.75c13.13-8.64,48-30.18,51.45-44.99,1.18-9.06-8.58-16.92-15.15-21.95-8.92-6.52-18.76-11.67-28.38-17.2-12.29-7.34-37.38-20.57-27.25-38.11,12.24-18.9,51-33.94,72.16-41.06,0,0,.12.33.12.33-15.57,7.21-71.72,31.18-71.19,49.45.41,13.66,30.28,29.29,41.22,36.6,10.11,6.75,32.59,18.3,31.12,32.34-1.67,10.94-16.58,21.9-25.17,28.06-9.15,6.37-18.79,11.97-28.78,16.82,0,0-.17-.31-.17-.31h0Z"/></svg>