<?xml version="1.0" encoding="UTF-8"?><svg id="Layer_1" xmlns="http://www.w3.org/2000/svg" viewBox="0 0 1024 1024"><defs><style>.cls-1{fill:#f5e6d3;}.cls-2{fill:#231f20;}.cls-3{fill:#3f2920;}</style></defs><path class="cls-3" d="M776.3,465.63c1.63.39,2.59.84,2.84,2.6.15,6.95.02,30.45.06,60.97,0,74.28,0,189.88,0,209.59.84,45.23-24.81,88.3-61.07,96.82-5.91,1.48-12.18,2.49-17.65,2.45-5.81,0-25.11,0-52.16,0-115.79-1.68-301.09,3.61-341.38-2.45-31.15-7.76-55.57-40.2-59.96-79.76-2.6-38.79-.51-244.02-1.04-287.63-.26-5.44,18.88-2.15,22.12-1.83,56.75,12.86,141.39,21.07,241.33,21.39,31.08.1,63.59-.62,94.04-2.19,65.04-3.3,117.89-10.02,158.62-19.15,4.98-.83,10.94-1.46,14.06-.86l.18.04Z"/><path class="cls-2" d="M407.38,840.56c-47.1,0-84.93-.64-100.72-3.02-31.9-7.94-57.16-41.43-61.6-81.46-1.75-26.02-1.4-123.89-1.12-202.54.13-37.97.25-70.76.07-85.28-.06-1.13.39-2.21,1.29-3.04,3.16-2.9,12.05-2.18,21.2-.96.78.1,1.38.18,1.77.22l.23.04c59.36,13.45,144.91,21.03,240.91,21.35,31.81.1,64.3-.66,93.93-2.19,62.68-3.18,115.94-9.61,158.29-19.11,3.19-.54,10.79-1.65,14.84-.88l.27.06c1.34.32,3.85.92,4.31,4.22l.02.23c.09,4.17.08,14.21.06,28.11,0,9.4-.02,20.58,0,32.9v209.59c.88,47.67-26.01,90.12-62.57,98.71-4.64,1.16-11.52,2.57-18.11,2.5h-52.15c-44.67-.65-99.57-.26-152.67.11-30.87.22-61.11.43-88.27.43ZM253.52,467.07c-4.49,0-5.45.74-5.65,1.07.19,14.63.07,47.44-.06,85.42-.26,74.44-.62,176.38,1.11,202.18,4.26,38.37,28.32,70.48,58.5,78.01,24.42,3.66,103.97,3.1,188.21,2.5,53.12-.38,108.04-.76,152.72-.11h52.13c4.91.08,10.79-.79,17.18-2.39,34.27-8.05,60.44-49.73,59.6-94.9v-209.63c-.02-12.32,0-23.5,0-32.91.01-13.74.02-23.71-.06-27.91-.08-.5-.16-.59-1.33-.87l-.15-.03c-2.37-.45-7.37-.13-13.35.88-42.46,9.52-95.94,15.98-158.84,19.17-29.7,1.54-62.25,2.3-94.15,2.2-96.22-.31-182.02-7.92-241.65-21.42-.41-.04-1.01-.12-1.76-.22-5.82-.77-9.78-1.04-12.47-1.04Z"/><path class="cls-1" d="M778.54,464.92c-18.93,39.73-257.89,42.4-327.34,39.16-68.06-2.66-119.73-7.75-162.57-17.29-7.31-1.72-17.19-4.49-24.72-7.45-69.77-29.49,66.86-49.67,161.18-53.95,55.81-2.87,109.92-2.97,165.7-.36,44.26,2.47,185.04,10.85,187.79,39.76l-.03.14Z"/><path class="cls-2" d="M504.41,507c-22.17,0-40.8-.4-53.3-.98-71.32-2.78-121.56-8.13-162.9-17.34-3.42-.8-15.26-3.71-25.01-7.53-14.8-6.26-21.4-12.49-20.22-19.09,4.5-25.1,132.92-36.38,182.02-38.61,55.62-2.86,109.88-2.98,165.88-.36,125.61,7.02,187.63,20.6,189.63,41.51l.03.3-.24.85c-16.02,33.63-179.42,41.25-275.89,41.25ZM511.44,425.09c-28.68,0-57.28.74-86.26,2.23-83.42,3.79-175.34,18.4-178.39,35.42-.78,4.35,5.57,9.61,17.87,14.81,9.46,3.72,21.08,6.56,24.41,7.34,41.08,9.15,91.11,14.47,162.2,17.24,85.28,3.97,306.38-1.45,325.31-37.64-1.71-10.46-28.75-28.76-185.91-37.54-26.69-1.25-53-1.87-79.24-1.87Z"/><path class="cls-2" d="M545.76,455.65c21.88-14.39,80.02-50.31,85.77-74.99,1.97-15.11-14.3-28.2-25.26-36.59-14.87-10.86-31.26-19.46-47.3-28.67-20.48-12.23-62.3-34.29-45.42-63.53,20.4-31.5,85.01-56.58,120.28-68.43,0,0,.2.55.2.55-25.95,12.03-119.55,51.98-118.66,82.42.68,22.77,50.47,48.82,68.71,61.01,16.85,11.25,54.33,30.51,51.88,53.91-2.78,18.24-27.64,36.51-41.95,46.78-15.26,10.62-31.31,19.95-47.97,28.04,0,0-.28-.51-.28-.51h0Z"/><path class="cls-2" d="M405.83,455.65c21.88-14.39,80.02-50.31,85.77-74.99,1.97-15.11-14.3-28.2-25.26-36.59-14.87-10.86-31.26-19.46-47.3-28.67-20.48-12.23-62.3-34.29-45.42-63.53,20.4-31.5,85.01-56.58,120.28-68.43,0,0,.2.55.2.55-25.95,12.03-119.55,51.98-118.66,82.42.68,22.77,50.47,48.82,68.71,61.01,16.85,11.25,54.33,30.51,51.88,53.91-2.78,18.24-27.64,36.51-41.95,46.78-15.26,10.62-31.31,19.95-47.97,28.04,0,0-.28-.51-.28-.51h0Z"/></svg>