<?xml version="1.0" encoding="UTF-8"?><svg id="Layer_1" xmlns="http://www.w3.org/2000/svg" viewBox="0 0 1024 1024"><defs><style>.cls-1{fill:none;stroke:#e8712a;stroke-miterlimit:10;stroke-width:2.5px;}.cls-2{fill:#e8712a;}</style></defs><path class="cls-2" d="M225.48,432.18v57.57h-31.18v-152.2h65.85c9.16,0,16.82,1.96,23,5.89,6.18,3.93,10.86,9.41,14.06,16.46,3.2,7.05,4.8,15.37,4.8,24.97,0,11.05-2.15,20.46-6.43,28.24-4.29,7.78-10.5,13.19-18.64,16.24l26.6,60.4h-33.8l-23.55-57.57h-20.71ZM225.48,406.23h30.74c2.76,0,5.16-.47,7.2-1.42,2.03-.94,3.6-2.43,4.69-4.47,1.09-2.03,1.64-4.8,1.64-8.29v-13.08c0-3.49-.55-6.29-1.64-8.39-1.09-2.11-2.65-3.6-4.69-4.47-2.04-.87-4.44-1.31-7.2-1.31h-30.74v41.43Z"/><path class="cls-2" d="M381.6,492.36c-12.21,0-22.82-2.62-31.83-7.85-9.02-5.23-16.03-13.63-21.04-25.18-5.02-11.56-7.52-26.78-7.52-45.68s2.51-34.31,7.52-45.79c5.02-11.48,12.03-19.84,21.04-25.08,9.01-5.23,19.62-7.85,31.83-7.85s22.82,2.62,31.84,7.85c9.01,5.23,16.03,13.59,21.04,25.08,5.02,11.49,7.52,26.75,7.52,45.79s-2.51,34.13-7.52,45.68c-5.01,11.56-12.03,19.95-21.04,25.18-9.01,5.23-19.62,7.85-31.84,7.85ZM381.6,464.89c5.81,0,10.72-1.16,14.72-3.49,4-2.32,7.09-5.85,9.27-10.57,2.18-4.72,3.27-10.5,3.27-17.34v-39.69c0-6.98-1.09-12.79-3.27-17.44-2.18-4.65-5.27-8.14-9.27-10.47-4-2.32-8.91-3.49-14.72-3.49s-10.54,1.17-14.61,3.49c-4.07,2.33-7.2,5.82-9.38,10.47-2.18,4.65-3.27,10.47-3.27,17.44v39.69c0,6.83,1.09,12.61,3.27,17.34,2.18,4.73,5.31,8.25,9.38,10.57,4.07,2.33,8.94,3.49,14.61,3.49Z"/><path class="cls-1" d="M577.63,489.74h-30.75l-8.94-76.1h-46.66l-9.81,76.1h-29.87l43.17-152.2h39.69l43.17,152.2Z"/><path class="cls-2" d="M641.3,492.36c-11.49,0-21.66-2-30.53-6s-16.57-9.99-23.11-17.99l20.06-20.06c4.22,5.38,9.27,9.52,15.16,12.43,5.89,2.91,12.24,4.36,19.08,4.36,7.27,0,12.72-1.6,16.35-4.8,3.63-3.2,5.45-7.99,5.45-14.39,0-3.49-.58-6.47-1.74-8.94-1.17-2.47-2.91-4.47-5.23-6s-5.38-2.65-9.16-3.38l-13.95-2.62c-9.31-1.74-16.97-4.5-23-8.29-6.03-3.78-10.54-8.68-13.52-14.72-2.98-6.03-4.47-13.26-4.47-21.7,0-9.88,1.96-18.17,5.89-24.86,3.93-6.68,9.7-11.77,17.34-15.26s17.04-5.23,28.24-5.23,20.39,1.71,28.46,5.12c8.07,3.42,14.94,8.69,20.6,15.81l-20.06,20.06c-3.78-4.65-8.03-8.1-12.76-10.36-4.73-2.25-10.29-3.38-16.68-3.38-6.83,0-11.85,1.31-15.04,3.92-3.2,2.62-4.8,6.83-4.8,12.65,0,3.35.54,6.14,1.63,8.39,1.09,2.26,2.76,4.11,5.01,5.56,2.25,1.45,5.13,2.54,8.61,3.27l13.96,2.83c10.03,2.04,18.1,4.8,24.2,8.29s10.58,8.11,13.41,13.85c2.83,5.74,4.25,12.9,4.25,21.48,0,10.76-2.07,19.84-6.21,27.26-4.14,7.41-10.18,13.05-18.1,16.9-7.92,3.85-17.7,5.78-29.33,5.78Z"/><path class="cls-2" d="M810.51,364.8h-36.41v124.94h-31.18v-124.94h-36.41v-27.26h104.01v27.26Z"/><path class="cls-2" d="M276.07,686.46v-63.45h-50.59v63.45h-31.18v-152.2h31.18v61.71h50.59v-61.71h31.18v152.2h-31.18Z"/><path class="cls-2" d="M392.07,689.07c-12.21,0-22.82-2.62-31.84-7.85-9.02-5.23-16.03-13.63-21.04-25.19-5.02-11.56-7.52-26.78-7.52-45.68s2.51-34.31,7.52-45.79c5.02-11.48,12.03-19.84,21.04-25.08,9.01-5.23,19.62-7.85,31.84-7.85s22.82,2.62,31.84,7.85c9.01,5.23,16.03,13.59,21.04,25.08,5.02,11.49,7.52,26.75,7.52,45.79s-2.51,34.12-7.52,45.68c-5.02,11.56-12.03,19.95-21.04,25.19-9.02,5.23-19.62,7.85-31.84,7.85ZM419.33,590.51c0-6.98-1.09-12.79-3.27-17.44-2.18-4.65-5.27-8.14-9.27-10.47-4-2.32-8.91-3.49-14.72-3.49s-10.54,1.17-14.61,3.49c-4.07,2.33-7.2,5.82-9.38,10.47-2.18,4.65-3.27,10.47-3.27,17.44M368.09,647.53c2.18,4.73,5.31,8.25,9.38,10.58,4.07,2.33,8.94,3.49,14.61,3.49s10.72-1.16,14.72-3.49c4-2.32,7.09-5.85,9.27-10.58"/><path class="cls-2" d="M476.02,534.26h31.18v98.78c0,6.69.72,12.1,2.18,16.25,1.45,4.14,3.93,7.2,7.41,9.16,3.49,1.96,8.14,2.94,13.96,2.94s10.65-.98,14.06-2.94c3.41-1.96,5.85-5.02,7.3-9.16,1.45-4.14,2.18-9.56,2.18-16.25v-98.78h31.18v94.63c0,14.25-1.74,25.81-5.23,34.67-3.49,8.87-9.23,15.34-17.23,19.41-8,4.07-18.75,6.11-32.27,6.11s-24.28-2.04-32.27-6.11c-8-4.07-13.74-10.54-17.23-19.41-3.49-8.87-5.23-20.42-5.23-34.67v-94.63Z"/><path class="cls-2" d="M658.75,689.07c-11.49,0-21.66-2-30.53-6-8.87-4-16.57-9.99-23.11-17.99l20.06-20.06c4.21,5.38,9.27,9.52,15.15,12.43,5.89,2.91,12.25,4.36,19.08,4.36,7.27,0,12.72-1.6,16.35-4.8,3.63-3.2,5.45-7.99,5.45-14.39,0-3.49-.58-6.47-1.74-8.94-1.17-2.47-2.91-4.47-5.23-6-2.33-1.53-5.38-2.65-9.16-3.38l-13.96-2.62c-9.3-1.74-16.97-4.5-23-8.29-6.03-3.78-10.54-8.68-13.52-14.72-2.98-6.03-4.47-13.26-4.47-21.7,0-9.88,1.96-18.17,5.89-24.86,3.92-6.69,9.7-11.77,17.33-15.26s17.04-5.23,28.24-5.23,20.39,1.71,28.46,5.12c8.07,3.42,14.94,8.69,20.61,15.81l-20.06,20.06c-3.78-4.65-8.03-8.1-12.76-10.36-4.73-2.25-10.29-3.38-16.68-3.38-6.83,0-11.85,1.31-15.05,3.92-3.2,2.62-4.8,6.83-4.8,12.65,0,3.35.54,6.14,1.63,8.39,1.09,2.26,2.76,4.11,5.02,5.56,2.25,1.46,5.12,2.54,8.61,3.27l13.96,2.83c10.03,2.04,18.1,4.8,24.2,8.29,6.11,3.49,10.58,8.11,13.41,13.85,2.83,5.74,4.25,12.9,4.25,21.48,0,10.76-2.07,19.84-6.21,27.26-4.14,7.41-10.18,13.05-18.1,16.9-7.92,3.85-17.7,5.78-29.33,5.78Z"/><path class="cls-2" d="M829.7,686.46h-94.2v-152.2h94.2v27.26h-63.02v34.45h53.42v27.04h-53.42v36.2h63.02v27.26Z"/></svg>