<?xml version="1.0" encoding="UTF-8"?><svg id="Layer_1" xmlns="http://www.w3.org/2000/svg" viewBox="0 0 1024 1024"><defs><style>.cls-1{fill:#d4712a;}</style></defs><path class="cls-1" d="M832.17,706.97c16.62,3.79,30.67-12.77,24.12-28.52-44.45-106.94-181.39-184.83-343.45-184.83s-303.12,80.25-345.4,189.68c-5.56,14.38,6.54,29.38,21.76,26.92,41.05-6.62,111.52-17.25,141.47-17.35,45.89-.15,136.44,18.75,182.17,22.52,48.72,4.03,143.52-28.23,192.08-29.46,26.98-.68,88.07,12.08,127.24,21.02Z"/><rect class="cls-1" x="237.85" y="358.55" width="29.02" height="154.64" rx="5.96" ry="5.96" transform="translate(-184.12 184.57) rotate(-30)"/><rect class="cls-1" x="729.06" y="358.55" width="29.02" height="154.64" rx="5.96" ry="5.96" transform="translate(1169.58 1185.12) rotate(-150)"/><rect class="cls-1" x="483.82" y="308.25" width="29.02" height="154.64" rx="5.96" ry="5.96" transform="translate(996.66 771.14) rotate(180)"/></svg>