<?xml version="1.0" encoding="UTF-8"?><svg id="Layer_1" xmlns="http://www.w3.org/2000/svg" viewBox="0 0 1024 1024"><defs><style>.cls-1{fill:#d4712a;}</style></defs><path class="cls-1" d="M832.17,476.95c16.62,3.79,30.67-12.77,24.12-28.52-44.45-106.94-181.39-184.83-343.45-184.83s-303.12,80.25-345.4,189.68c-5.56,14.38,6.54,29.38,21.76,26.92,41.05-6.62,111.52-17.25,141.47-17.35,45.89-.15,136.44,18.75,182.17,22.52,48.72,4.03,143.52-28.23,192.08-29.46,26.98-.68,88.07,12.08,127.24,21.02Z"/><rect class="cls-1" x="237.85" y="128.53" width="29.02" height="154.64" rx="5.96" ry="5.96" transform="translate(-69.12 153.76) rotate(-30)"/><rect class="cls-1" x="729.06" y="128.53" width="29.02" height="154.64" rx="5.96" ry="5.96" transform="translate(1284.59 755.91) rotate(-150)"/><rect class="cls-1" x="483.82" y="78.24" width="29.02" height="154.64" rx="5.96" ry="5.96" transform="translate(996.66 311.11) rotate(180)"/><path d="M230.44,663.24c-11.52,0-22.56-1.59-33.11-4.76-10.56-3.18-19.06-7.3-25.5-12.38l11.31-25.83c6.17,4.52,13.47,8.22,21.9,11.12,8.43,2.89,16.97,4.34,25.6,4.34,6.58,0,11.89-.67,15.94-2.01,4.04-1.34,7.02-3.21,8.95-5.61,1.92-2.4,2.88-5.15,2.88-8.26,0-3.95-1.51-7.09-4.52-9.42-3.02-2.33-6.99-4.23-11.93-5.72-4.94-1.48-10.39-2.89-16.35-4.23-5.96-1.34-11.93-3-17.89-4.98-5.96-1.97-11.41-4.52-16.35-7.62-4.94-3.1-8.95-7.2-12.03-12.28s-4.63-11.57-4.63-19.48c0-8.47,2.23-16.2,6.68-23.18,4.45-6.99,11.17-12.56,20.15-16.72,8.98-4.16,20.26-6.25,33.83-6.25,9.05,0,17.96,1.1,26.74,3.28,8.77,2.19,16.52,5.47,23.24,9.84l-10.28,26.04c-6.72-3.95-13.44-6.88-20.15-8.79-6.72-1.91-13.3-2.86-19.74-2.86s-11.72.78-15.84,2.33c-4.11,1.55-7.06,3.57-8.84,6.03-1.78,2.47-2.67,5.33-2.67,8.57,0,3.81,1.51,6.88,4.52,9.21,3.01,2.33,6.99,4.2,11.93,5.61,4.94,1.41,10.39,2.83,16.35,4.23,5.96,1.41,11.93,3.04,17.89,4.87,5.96,1.84,11.41,4.31,16.35,7.41,4.94,3.11,8.95,7.2,12.03,12.28,3.08,5.08,4.63,11.51,4.63,19.27,0,8.33-2.26,15.95-6.79,22.86-4.52,6.92-11.28,12.49-20.26,16.73-8.98,4.23-20.33,6.35-34.04,6.35Z"/><path d="M314.35,660.7v-148.2h108.79v27.52h-75.68v93.15h78.36v27.52h-111.47ZM344.99,598.88v-26.68h69.31v26.68h-69.31Z"/><path d="M452.34,660.7v-148.2h27.56l84.94,106.7h-13.37v-106.7h32.91v148.2h-27.35l-85.14-106.7h13.37v106.7h-32.91Z"/><path d="M645.05,663.24c-9.74,0-18.68-1.87-26.84-5.61-8.16-3.74-14.84-9.07-20.05-15.98l18.51-22.86c3.97,5.37,8.16,9.42,12.54,12.17,4.39,2.75,9.12,4.13,14.19,4.13,13.57,0,20.36-8.18,20.36-24.56v-70.5h-50.59v-27.52h83.7v96.12c0,18.35-4.39,32.04-13.16,41.07-8.78,9.03-21.67,13.55-38.66,13.55Z"/><path d="M707.77,660.7l64.17-148.2h32.91l64.37,148.2h-34.96l-52.65-130.84h13.16l-52.85,130.84h-34.14ZM739.85,628.94l8.84-26.04h74.04l9.05,26.04h-91.93Z"/><path d="M198.49,782.44c-5.71,0-10.99-.99-15.84-2.96-4.85-1.97-9.04-4.75-12.58-8.32-3.54-3.57-6.31-7.78-8.3-12.62-1.99-4.84-2.98-10.12-2.98-15.85s.99-11.01,2.98-15.85c1.99-4.84,4.77-9.04,8.35-12.62,3.58-3.57,7.79-6.34,12.64-8.32,4.84-1.97,10.12-2.96,15.84-2.96s10.66.95,15.51,2.85c4.84,1.9,8.93,4.75,12.26,8.54l-5.1,5.25c-3.11-3.27-6.54-5.64-10.3-7.09-3.76-1.45-7.81-2.18-12.15-2.18-4.56,0-8.79.8-12.69,2.4-3.9,1.6-7.3,3.87-10.2,6.81-2.89,2.94-5.15,6.36-6.78,10.27s-2.44,8.21-2.44,12.9.81,8.99,2.44,12.9c1.63,3.91,3.89,7.33,6.78,10.27,2.89,2.94,6.29,5.21,10.2,6.81,3.9,1.6,8.13,2.4,12.69,2.4s8.39-.74,12.15-2.23c3.76-1.49,7.19-3.87,10.3-7.15l5.1,5.25c-3.33,3.8-7.41,6.66-12.26,8.6-4.85,1.94-10.05,2.9-15.62,2.9Z"/><path d="M326.04,782.44c-5.71,0-11.01-.99-15.89-2.96-4.88-1.97-9.11-4.76-12.69-8.37-3.58-3.61-6.36-7.82-8.35-12.62-1.99-4.8-2.98-10.07-2.98-15.8s.99-11,2.98-15.8c1.99-4.8,4.77-9,8.35-12.62,3.58-3.61,7.79-6.4,12.64-8.37,4.84-1.97,10.16-2.96,15.94-2.96s10.99.99,15.84,2.96c4.84,1.97,9.06,4.75,12.64,8.32,3.58,3.57,6.36,7.78,8.35,12.62,1.99,4.84,2.98,10.12,2.98,15.85s-1,11.02-2.98,15.85c-1.99,4.84-4.77,9.04-8.35,12.62-3.58,3.57-7.79,6.35-12.64,8.32-4.85,1.97-10.12,2.96-15.84,2.96ZM326.04,775.07c4.56,0,8.77-.8,12.64-2.4,3.87-1.6,7.23-3.87,10.09-6.81,2.86-2.94,5.08-6.36,6.67-10.27,1.59-3.91,2.39-8.21,2.39-12.9s-.8-8.99-2.39-12.9c-1.59-3.91-3.81-7.33-6.67-10.27-2.86-2.94-6.22-5.21-10.09-6.81-3.87-1.6-8.08-2.4-12.64-2.4s-8.79.8-12.69,2.4c-3.9,1.6-7.29,3.87-10.14,6.81-2.86,2.94-5.1,6.36-6.72,10.27s-2.44,8.21-2.44,12.9.81,8.9,2.44,12.84c1.63,3.95,3.87,7.39,6.72,10.33,2.86,2.94,6.24,5.21,10.14,6.81,3.9,1.6,8.13,2.4,12.69,2.4Z"/><path d="M438.08,781.77v-78.16h52.06v7.15h-44.04v71.01h-8.03ZM445.24,748.61v-7.15h40.13v7.15h-40.13Z"/><path d="M560.97,781.77v-78.16h52.06v7.15h-44.04v71.01h-8.03ZM568.13,748.61v-7.15h40.13v7.15h-40.13Z"/><path d="M683.86,781.77v-78.16h52.06v7.15h-44.04v63.86h45.66v7.15h-53.69ZM691.02,745.59v-7.03h40.13v7.03h-40.13Z"/><path d="M810.65,781.77v-78.16h52.06v7.15h-44.04v63.86h45.66v7.15h-53.69ZM817.81,745.59v-7.03h40.13v7.03h-40.13Z"/></svg>