<?xml version="1.0" encoding="UTF-8"?><svg id="Layer_1" xmlns="http://www.w3.org/2000/svg" viewBox="0 0 1024 1024"><defs><style>.cls-1{fill:#2d5a3d;}.cls-2{fill:#c9a96e;}</style></defs><path class="cls-1" d="M664.37,398.33c-2.29-5.66-7.84-9.68-14.29-9.68h-276.25c-6.45,0-12,4.02-14.29,9.68l-.05.32-1.07,322.78c0,22.61,18.5,41.11,41.11,41.11h224.87c22.61,0,41.11-18.5,41.11-41.11l-1.09-322.97-.03-.13Z"/><path class="cls-2" d="M592.85,261.46h-161.69c-53.3,0-96.51,42.56-96.51,95.06v36.76l21.08,2.9c2.31-5.63,9.38-12.54,15.9-12.54h279.28c6.52,0,15.84,7.2,17.42,14.04l21.02-4.4v-36.76c0-52.5-43.21-95.06-96.51-95.06Z"/><polygon class="cls-2" points="665.45 709.63 358.41 709.63 359.19 482.66 664.68 482.72 665.45 709.63"/><polygon class="cls-2" points="689.35 755.54 689.35 407.06 677.17 408.06 677.7 757.54 689.35 755.54"/><path class="cls-1" d="M358.41,709.63s20.07-170.46,306.27-226.91c0,0-34.36,180.11-306.27,226.91Z"/></svg>