<?xml version="1.0" encoding="UTF-8"?><svg id="Layer_1" xmlns="http://www.w3.org/2000/svg" viewBox="0 0 1024 1024"><defs><style>.cls-1{fill:#2d5a3d;}.cls-2{fill:#c9a96e;}</style></defs><path class="cls-1" d="M292.95,422.28c-1.79-4.42-6.13-7.56-11.17-7.56H65.8c-5.04,0-9.38,3.14-11.17,7.56l-.04.25-.84,252.35c0,17.67,14.46,32.14,32.14,32.14h175.8c17.67,0,32.14-14.46,32.14-32.14l-.86-252.49-.02-.1Z"/><path class="cls-2" d="M237.03,315.28h-126.41c-41.67,0-75.45,33.27-75.45,74.32v28.74l16.48,2.27c1.81-4.4,7.33-9.8,12.43-9.8h218.34c5.1,0,12.38,5.63,13.62,10.97l16.43-3.44v-28.74c0-41.04-33.78-74.32-75.45-74.32Z"/><polygon class="cls-2" points="293.79 665.66 53.75 665.66 54.36 488.21 293.19 488.26 293.79 665.66"/><path class="cls-1" d="M319.87,529.18v-69.89h16.08v69.89h-16.08ZM334.35,513.2l-.9-18.67,33.45-35.25h17.97l-30.15,32.45-8.99,9.59-11.38,11.88ZM367.7,529.18l-24.86-30.45,10.58-11.48,33.15,41.94h-18.87Z"/><path class="cls-1" d="M393.75,529.18v-69.89h52.82v12.98h-36.74v43.93h38.04v12.98h-54.12ZM408.63,500.02v-12.58h33.65v12.58h-33.65Z"/><path class="cls-1" d="M460.75,529.18v-69.89h31.75c7.59,0,14.28,1.45,20.07,4.34s10.32,6.94,13.58,12.13c3.26,5.19,4.89,11.35,4.89,18.47s-1.63,13.2-4.89,18.42c-3.26,5.23-7.79,9.29-13.58,12.18-5.79,2.9-12.48,4.34-20.07,4.34h-31.75ZM476.92,515.9h14.78c4.66,0,8.7-.88,12.13-2.65,3.43-1.76,6.09-4.28,7.99-7.54,1.9-3.26,2.85-7.09,2.85-11.48s-.95-8.3-2.85-11.53c-1.9-3.23-4.56-5.72-7.99-7.49-3.43-1.76-7.47-2.65-12.13-2.65h-14.78v43.33Z"/><path class="cls-1" d="M533.04,529.18l31.15-69.89h15.97l31.25,69.89h-16.97l-25.56-61.7h6.39l-25.66,61.7h-16.57ZM548.61,514.2l4.29-12.28h35.94l4.39,12.28h-44.63Z"/><path class="cls-1" d="M618.7,529.18v-69.89h16.17v69.89h-16.17Z"/><path class="cls-1" d="M319.87,624.41v-69.89h13.56l41.79,50.32h-6.58v-50.32h16.19v69.89h-13.46l-41.89-50.32h6.58v50.32h-16.19Z"/><path class="cls-1" d="M433.09,625.61c-10.05,0-17.91-2.76-23.57-8.29-5.67-5.52-8.5-13.41-8.5-23.66v-39.14h16.39v38.54c0,6.66,1.38,11.45,4.15,14.38,2.76,2.93,6.64,4.39,11.64,4.39s8.87-1.46,11.63-4.39c2.77-2.93,4.15-7.72,4.15-14.38v-38.54h16.19v39.14c0,10.25-2.83,18.14-8.5,23.66-5.66,5.53-13.52,8.29-23.57,8.29Z"/><path class="cls-1" d="M504.62,625.61c-5.67,0-11.1-.75-16.29-2.25-5.2-1.5-9.38-3.45-12.55-5.84l5.56-12.18c3.04,2.13,6.63,3.88,10.78,5.24,4.15,1.37,8.35,2.05,12.6,2.05,3.24,0,5.85-.32,7.84-.95,1.99-.63,3.46-1.51,4.4-2.65.94-1.13,1.42-2.43,1.42-3.89,0-1.86-.74-3.34-2.23-4.44-1.48-1.1-3.44-2-5.87-2.7-2.43-.7-5.11-1.36-8.04-2-2.93-.63-5.87-1.41-8.8-2.35s-5.62-2.13-8.04-3.6c-2.43-1.46-4.4-3.39-5.92-5.79-1.52-2.4-2.28-5.46-2.28-9.19,0-3.99,1.1-7.64,3.29-10.93,2.19-3.29,5.5-5.92,9.91-7.89,4.42-1.96,9.97-2.95,16.64-2.95,4.45,0,8.84.52,13.15,1.55,4.32,1.03,8.13,2.58,11.43,4.64l-5.06,12.28c-3.31-1.86-6.61-3.24-9.92-4.14-3.3-.9-6.54-1.35-9.71-1.35s-5.77.37-7.79,1.1c-2.02.73-3.48,1.68-4.35,2.85-.88,1.17-1.31,2.51-1.31,4.04,0,1.8.74,3.24,2.23,4.34,1.48,1.1,3.44,1.98,5.87,2.65,2.43.67,5.11,1.33,8.04,2,2.94.67,5.87,1.43,8.8,2.3,2.93.87,5.62,2.03,8.04,3.49,2.43,1.47,4.4,3.4,5.92,5.79,1.52,2.4,2.28,5.43,2.28,9.09,0,3.93-1.11,7.52-3.34,10.78-2.23,3.26-5.55,5.89-9.97,7.89-4.42,2-10,3-16.74,3Z"/><path class="cls-1" d="M536.59,624.41l31.57-69.89h16.19l31.67,69.89h-17.2l-25.9-61.7h6.47l-26,61.7h-16.8ZM552.37,609.43l4.35-12.28h36.42l4.45,12.28h-45.23Z"/><path class="cls-1" d="M623.4,624.41v-69.89h13.56l41.79,50.32h-6.58v-50.32h16.19v69.89h-13.46l-41.89-50.32h6.58v50.32h-16.19Z"/><path class="cls-1" d="M719.82,624.41v-56.71h-22.66v-13.18h61.72v13.18h-22.66v56.71h-16.39Z"/><path class="cls-1" d="M754.83,624.41l31.57-69.89h16.19l31.67,69.89h-17.2l-25.9-61.7h6.47l-26,61.7h-16.8ZM770.61,609.43l4.35-12.28h36.42l4.45,12.28h-45.23Z"/><path class="cls-1" d="M841.64,624.41v-69.89h30.25c9.85,0,17.5,2.25,22.97,6.74,5.46,4.49,8.2,10.7,8.2,18.62,0,5.19-1.25,9.67-3.74,13.43-2.5,3.76-6.04,6.64-10.62,8.64-4.59,2-10.05,3-16.39,3h-21.55l7.28-7.09v26.56h-16.39ZM858.03,599.65l-7.28-7.59h20.64c5.06,0,8.84-1.08,11.33-3.24,2.49-2.16,3.74-5.14,3.74-8.94s-1.25-6.86-3.74-8.99c-2.5-2.13-6.27-3.2-11.33-3.2h-20.64l7.28-7.69v39.64ZM886.66,624.41l-17.71-25.36h17.5l17.91,25.36h-17.71Z"/><path class="cls-1" d="M906.69,624.41l31.57-69.89h16.19l31.67,69.89h-17.2l-25.9-61.7h6.47l-26,61.7h-16.8ZM922.48,609.43l4.35-12.28h36.42l4.45,12.28h-45.23Z"/><rect class="cls-2" x="668.62" y="516.62" width="283.26" height="12.56"/><path class="cls-1" d="M53.75,665.66s15.69-133.27,239.43-177.4c0,0-26.86,140.8-239.43,177.4Z"/></svg>